# xmcd
#
# Track frame offsets:
#	150
#	46012
#	76795
#	112702
#	143765
#	168675
#	206872
#	223757
#	285995
#
# Disc length: 4449 seconds
#
# Revision: 0
# Processed by: cddbd v1.4PL0 Copyright (c) Steve Scherf et al.
# Submitted via: audiograbber 1.81.02
#
DISCID=77115f09
DTITLE=Johann Wolfgang von Goethe - Die Leiden des jungen Werther CD3
DYEAR=1994
DGENRE=Vocal
TTITLE0=Bei der Gesandschaft, Ärger über Geschäftsgang und Adelshochmut Lottes 
TTITLE0=und Alberts Heirat
TTITLE1=Unverminderte Leidenschaft für sie
TTITLE2=Kränkung in der Adelsgesellschaft
TTITLE3=Entlassung eingereicht, Abreise, Wiedersehen mit Kindheitsstätten
TTITLE4=Bei dem Fürsten, Unbefriedigender Zustand, Beschluß, dem Gefühl nachzug
TTITLE4=eben und zu Lotte zu reisen,
TTITLE5=Gibt Liebe ein Recht, Der unglückliche Bauernbursche
TTITLE6=Die abgehauenen Nußbäume
TTITLE7=Ossian, Nur noch Empfindung und Leidenschaft, Dauernde Selbstmordgedank
TTITLE7=en
TTITLE8=Der irre Blumensucher im Winter, Tod und religiöse Existenz
EXTD=
EXTT0=
EXTT1=
EXTT2=
EXTT3=
EXTT4=
EXTT5=
EXTT6=
EXTT7=
EXTT8=
PLAYORDER=
